<?xml version="1.0" encoding="UTF-8" standalone="no"?><!DOCTYPE svg PUBLIC "-//W3C//DTD SVG 1.1//EN" "http://www.w3.org/Graphics/SVG/1.1/DTD/svg11.dtd"><svg width="100%" height="100%" viewBox="0 0 534 534" version="1.1" xmlns="http://www.w3.org/2000/svg" xmlns:xlink="http://www.w3.org/1999/xlink" xml:space="preserve" xmlns:serif="http://www.serif.com/" style="fill-rule:evenodd;clip-rule:evenodd;stroke-linejoin:round;stroke-miterlimit:2;"><path d="M533.333,107.014c0,-59.063 -47.951,-107.014 -107.014,-107.014l-319.305,0c-59.063,0 -107.014,47.951 -107.014,107.014l0,319.305c0,59.063 47.951,107.014 107.014,107.014l319.305,0c59.063,0 107.014,-47.951 107.014,-107.014l0,-319.305Z" style="fill:#e31e25;"/><path d="M68.132,277.702l106.835,35.937l0,59.961l-172.656,-70.312l0,-51.953l172.656,-70.313l0,59.766l-106.835,36.914Z" style="fill:#fff;fill-rule:nonzero;"/><path d="M238.249,421.061l-46.68,0l97.07,-308.789l46.875,0l-97.265,308.789Z" style="fill:#fff;fill-rule:nonzero;"/><path d="M465.592,277.116l-106.25,-36.133l0,-59.766l171.68,70.313l0,51.953l-171.68,70.313l0,-59.766l106.25,-36.914Z" style="fill:#fff;fill-rule:nonzero;"/></svg>