<?xml version="1.0" encoding="UTF-8" standalone="no"?>
<!DOCTYPE svg PUBLIC "-//W3C//DTD SVG 1.1//EN" "http://www.w3.org/Graphics/SVG/1.1/DTD/svg11.dtd">
<svg width="100%" height="100%" viewBox="0 0 128 128" version="1.1" xmlns="http://www.w3.org/2000/svg" xmlns:xlink="http://www.w3.org/1999/xlink" xml:space="preserve" xmlns:serif="http://www.serif.com/" style="fill-rule:evenodd;clip-rule:evenodd;stroke-linejoin:round;stroke-miterlimit:2;">
    <path d="M128,25.683C128,11.508 116.492,0 102.317,0L25.683,0C11.508,0 0,11.508 0,25.683L0,102.317C0,116.492 11.508,128 25.683,128L102.317,128C116.492,128 128,116.492 128,102.317L128,25.683ZM123.5,25.683L123.5,102.317C123.5,114.008 114.008,123.5 102.317,123.5L25.683,123.5C13.992,123.5 4.5,114.008 4.5,102.317L4.5,25.683C4.5,13.992 13.992,4.5 25.683,4.5L102.317,4.5C114.008,4.5 123.5,13.992 123.5,25.683Z"/>
    <g transform="matrix(1,0,0,1,-41.7481,33.7747)">
        <g transform="matrix(89,0,0,89,44.93,59.146)">
            <path d="M0.187,-0.297L0.454,-0.208L0.454,-0.058L0.022,-0.233L0.022,-0.363L0.454,-0.539L0.454,-0.39L0.187,-0.297Z" style="fill-rule:nonzero;"/>
        </g>
        <g transform="matrix(89,0,0,89,90.2992,59.146)">
            <path d="M0.103,0.061L-0.014,0.061L0.229,-0.711L0.346,-0.711L0.103,0.061Z" style="fill-rule:nonzero;"/>
        </g>
        <g transform="matrix(89,0,0,89,121.545,59.146)">
            <path d="M0.32,-0.299L0.054,-0.389L0.054,-0.539L0.483,-0.363L0.483,-0.233L0.054,-0.057L0.054,-0.207L0.32,-0.299Z" style="fill-rule:nonzero;"/>
        </g>
    </g>
</svg>
