<?xml version="1.0" encoding="UTF-8" standalone="no"?>
<!DOCTYPE svg PUBLIC "-//W3C//DTD SVG 1.1//EN" "http://www.w3.org/Graphics/SVG/1.1/DTD/svg11.dtd">
<svg width="100%" height="100%" viewBox="0 0 128 128" version="1.1" xmlns="http://www.w3.org/2000/svg" xmlns:xlink="http://www.w3.org/1999/xlink" xml:space="preserve" xmlns:serif="http://www.serif.com/" style="fill-rule:evenodd;clip-rule:evenodd;stroke-linejoin:round;stroke-miterlimit:2;">
    <path d="M128,25.683C128,11.508 116.492,0 102.317,0L25.683,0C11.508,0 0,11.508 0,25.683L0,102.317C0,116.492 11.508,128 25.683,128L102.317,128C116.492,128 128,116.492 128,102.317L128,25.683ZM123.5,25.683L123.5,102.317C123.5,114.008 114.008,123.5 102.317,123.5L25.683,123.5C13.992,123.5 4.5,114.008 4.5,102.317L4.5,25.683C4.5,13.992 13.992,4.5 25.683,4.5L102.317,4.5C114.008,4.5 123.5,13.992 123.5,25.683Z"/>
    <g transform="matrix(1,0,0,1,-35.598,30.8501)">
        <text x="44.93px" y="59.146px" style="font-family:'Roboto-Black', 'Roboto';font-weight:900;font-size:80px;">&lt;/&gt;</text>
    </g>
</svg>
